# xmcd
#
# Track frame offsets: 
#        150
#        5931
#        20635
#        35972
#        51563
#        61192
#        74216
#        87781
#        102387
#        116705
#        128035
#        143293
#        145823
#        164138
#        181444
#
# Disc length: 2487 seconds
#
# Revision: 1
# Processed by: cddbd v1.5.2PL0 Copyright (c) Steve Scherf et al.
# Submitted via: ExactAudioCopy v0.99pb4
#
DISCID=e909b50f
DTITLE=Galactic - Ya-Ka-May
DYEAR=2010
DGENRE=Blues
TTITLE0=Friends of Science
TTITLE1=Boe Money (feat. The Rebirth Brass Band)
TTITLE2=Double It (feat. Big Freedia)
TTITLE3=Heart of Steel (feat. Irma Thomas)
TTITLE4=Wild Man (feat. Big Chief Bo Dollis)
TTITLE5=Bacchus (feat. Allen Toussaint)
TTITLE6=Katey vs. Nobby (feat. Katey Red and Sissy Nobby)
TTITLE7=Cineramascope (feat. Trombone Shorty and Corey Henry)
TTITLE8=Dark Water (feat. John Boutte)
TTITLE9=Do It Again (feat. Cheeky Blakk)
TTITLE10=Liquor Pang (feat. Josh Cohen and Ryan Scully from the Morning 
TTITLE10=40 Federation)
TTITLE11=Krewe d'Etat
TTITLE12=You Don't Know (feat. Glen David Andrews and The Rebirth Brass 
TTITLE12=Band)
TTITLE13=Speaks His Mind (feat. Walter "Wolfman" Washington)
TTITLE14=Do It Again (Again) (feat. Cheeky Blakk)
EXTD=
EXTT0=
EXTT1=
EXTT2=
EXTT3=
EXTT4=
EXTT5=
EXTT6=
EXTT7=
EXTT8=
EXTT9=
EXTT10=
EXTT11=
EXTT12=
EXTT13=
EXTT14=
PLAYORDER=
